<svg width="23" height="27" viewBox="0 0 23 27" fill="none" xmlns="http://www.w3.org/2000/svg">
<path d="M18.8413 14.1714C18.8293 11.9741 19.8231 10.3157 21.8348 9.09434C20.7092 7.48382 19.0089 6.59774 16.7638 6.42411C14.6384 6.25647 12.3154 7.66343 11.4652 7.66343C10.5672 7.66343 8.50761 6.48398 6.8911 6.48398C3.55032 6.53786 0 9.14822 0 14.4587C0 16.0273 0.287379 17.6478 0.862136 19.3202C1.62848 21.5175 4.3945 26.9058 7.28026 26.816C8.789 26.7801 9.85469 25.7443 11.8184 25.7443C13.7223 25.7443 14.7102 26.816 16.3926 26.816C19.3023 26.7741 21.8049 21.8767 22.5353 19.6735C18.6317 17.8354 18.8413 14.2851 18.8413 14.1714ZM15.4526 4.34062C17.0871 2.40081 16.9374 0.634628 16.8895 0C15.4466 0.0838188 13.7762 0.981877 12.8243 2.08948C11.7765 3.27492 11.1599 4.74175 11.2916 6.39418C12.8542 6.51392 14.2791 5.71165 15.4526 4.34062Z" fill="black"/>
</svg>
