<svg width="20" height="20" viewBox="0 0 20 20" fill="none" xmlns="http://www.w3.org/2000/svg">
<g clip-path="url(#clip0_542_2528)">
<path d="M9.99984 18.3334C7.7897 18.3334 5.67008 17.4554 4.10728 15.8926C2.54448 14.3298 1.6665 12.2102 1.6665 10C1.6665 7.78988 2.54448 5.67027 4.10728 4.10746C5.67008 2.54466 7.7897 1.66669 9.99984 1.66669C12.21 1.66669 14.3296 2.45686 15.8924 3.86339C17.4552 5.26991 18.3332 7.17756 18.3332 9.16669C18.3332 10.2718 17.8942 11.3316 17.1128 12.113C16.3314 12.8944 15.2716 13.3334 14.1665 13.3334H12.2915C12.0207 13.3334 11.7552 13.4088 11.5248 13.5512C11.2944 13.6935 11.1082 13.8973 10.9871 14.1395C10.866 14.3817 10.8147 14.6529 10.8391 14.9227C10.8634 15.1924 10.9623 15.45 11.1248 15.6667L11.3748 16C11.5373 16.2167 11.6363 16.4743 11.6606 16.7441C11.6849 17.0138 11.6337 17.285 11.5125 17.5272C11.3914 17.7694 11.2052 17.9732 10.9749 18.1156C10.7445 18.2579 10.479 18.3334 10.2082 18.3334H9.99984Z" stroke="#4A5565" stroke-width="1.66667" stroke-linecap="round" stroke-linejoin="round"/>
<path d="M11.2502 5.83333C11.4803 5.83333 11.6668 5.64679 11.6668 5.41667C11.6668 5.18655 11.4803 5 11.2502 5C11.02 5 10.8335 5.18655 10.8335 5.41667C10.8335 5.64679 11.02 5.83333 11.2502 5.83333Z" fill="#4A5565" stroke="#4A5565" stroke-width="1.66667" stroke-linecap="round" stroke-linejoin="round"/>
<path d="M14.5832 9.16665C14.8133 9.16665 14.9998 8.9801 14.9998 8.74998C14.9998 8.51986 14.8133 8.33331 14.5832 8.33331C14.3531 8.33331 14.1665 8.51986 14.1665 8.74998C14.1665 8.9801 14.3531 9.16665 14.5832 9.16665Z" fill="#4A5565" stroke="#4A5565" stroke-width="1.66667" stroke-linecap="round" stroke-linejoin="round"/>
<path d="M5.41667 10.8333C5.64679 10.8333 5.83333 10.6468 5.83333 10.4167C5.83333 10.1865 5.64679 10 5.41667 10C5.18655 10 5 10.1865 5 10.4167C5 10.6468 5.18655 10.8333 5.41667 10.8333Z" fill="#4A5565" stroke="#4A5565" stroke-width="1.66667" stroke-linecap="round" stroke-linejoin="round"/>
<path d="M7.08317 6.66665C7.31329 6.66665 7.49984 6.4801 7.49984 6.24998C7.49984 6.01986 7.31329 5.83331 7.08317 5.83331C6.85305 5.83331 6.6665 6.01986 6.6665 6.24998C6.6665 6.4801 6.85305 6.66665 7.08317 6.66665Z" fill="#4A5565" stroke="#4A5565" stroke-width="1.66667" stroke-linecap="round" stroke-linejoin="round"/>
</g>
<defs>
<clipPath id="clip0_542_2528">
<rect width="20" height="20" fill="white"/>
</clipPath>
</defs>
</svg>
