<svg width="20" height="20" viewBox="0 0 20 20" fill="none" xmlns="http://www.w3.org/2000/svg">
<path d="M8.55444 17.4954C8.70069 17.7486 8.91103 17.959 9.16432 18.1052C9.4176 18.2514 9.70492 18.3284 9.99739 18.3284C10.2899 18.3284 10.5772 18.2514 10.8305 18.1052C11.0837 17.959 11.2941 17.7486 11.4403 17.4954" stroke="#2962FF" stroke-width="1.66622" stroke-linecap="round" stroke-linejoin="round"/>
<path d="M2.71767 12.7683C2.60883 12.8876 2.53701 13.0359 2.51093 13.1953C2.48486 13.3546 2.50566 13.5181 2.57079 13.6659C2.63593 13.8136 2.74261 13.9393 2.87784 14.0275C3.01307 14.1157 3.17103 14.1628 3.3325 14.1629H16.6622C16.8237 14.163 16.9817 14.1161 17.117 14.028C17.2523 13.9399 17.3591 13.8144 17.4244 13.6668C17.4898 13.5191 17.5108 13.3557 17.4849 13.1963C17.459 13.0369 17.3874 12.8885 17.2787 12.7691C16.1707 11.6269 14.996 10.4131 14.996 6.66491C14.996 5.33919 14.4694 4.06776 13.532 3.13033C12.5945 2.1929 11.3231 1.66626 9.99737 1.66626C8.67165 1.66626 7.40022 2.1929 6.46279 3.13033C5.52536 4.06776 4.99872 5.33919 4.99872 6.66491C4.99872 10.4131 3.8232 11.6269 2.71767 12.7683Z" stroke="#2962FF" stroke-width="1.66622" stroke-linecap="round" stroke-linejoin="round"/>
</svg>
