<svg width="24" height="24" viewBox="0 0 24 24" fill="none" xmlns="http://www.w3.org/2000/svg">
<path d="M14.9998 20.9997V12.9997C14.9998 12.7345 14.8944 12.4801 14.7069 12.2926C14.5193 12.1051 14.265 11.9997 13.9998 11.9997H9.99976C9.73454 11.9997 9.48019 12.1051 9.29265 12.2926C9.10511 12.4801 8.99976 12.7345 8.99976 12.9997V20.9997" stroke="#6C757D" stroke-width="1.99995" stroke-linecap="round" stroke-linejoin="round"/>
<path d="M3 10C2.99993 9.7091 3.06333 9.42165 3.18579 9.15775C3.30824 8.89384 3.4868 8.65983 3.709 8.47203L10.709 2.47303C11.07 2.16794 11.5274 2.00055 12 2.00055C12.4726 2.00055 12.93 2.16794 13.291 2.47303L20.291 8.47203C20.5132 8.65983 20.6918 8.89384 20.8142 9.15775C20.9367 9.42165 21.0001 9.7091 21 10V19C21 19.5305 20.7893 20.0392 20.4142 20.4142C20.0391 20.7893 19.5304 21 19 21H5C4.46957 21 3.96086 20.7893 3.58579 20.4142C3.21071 20.0392 3 19.5305 3 19V10Z" stroke="#6C757D" stroke-width="1.99995" stroke-linecap="round" stroke-linejoin="round"/>
</svg>
