<svg width="20" height="20" viewBox="0 0 20 20" fill="none" xmlns="http://www.w3.org/2000/svg">
<g clip-path="url(#clip0_546_840)">
<path d="M9.99731 16.6621H10.0056" stroke="#4A5565" stroke-width="2.08277" stroke-linecap="round" stroke-linejoin="round"/>
<path d="M7.08154 13.6868C7.8602 12.9236 8.90708 12.4961 9.99743 12.4961C11.0878 12.4961 12.1346 12.9236 12.9133 13.6868" stroke="#4A5565" stroke-width="2.08277" stroke-linecap="round" stroke-linejoin="round"/>
<path d="M4.16553 10.7127C5.3469 9.55465 6.84631 8.77449 8.4727 8.47168" stroke="#4A5565" stroke-width="2.08277" stroke-linecap="round" stroke-linejoin="round"/>
<path d="M15.829 10.7127C15.3274 10.2209 14.7656 9.79461 14.157 9.44385" stroke="#4A5565" stroke-width="2.08277" stroke-linecap="round" stroke-linejoin="round"/>
<path d="M1.66626 7.3479C2.69648 6.42655 3.87241 5.68248 5.14616 5.146" stroke="#4A5565" stroke-width="2.08277" stroke-linecap="round" stroke-linejoin="round"/>
<path d="M18.3285 7.34801C17.0577 6.2115 15.5679 5.34701 13.9506 4.80772C12.3334 4.26844 10.6228 4.06577 8.92432 4.21219" stroke="#4A5565" stroke-width="2.08277" stroke-linecap="round" stroke-linejoin="round"/>
<path d="M1.66626 1.66602L18.3284 18.3282" stroke="#4A5565" stroke-width="2.08277" stroke-linecap="round" stroke-linejoin="round"/>
</g>
<defs>
<clipPath id="clip0_546_840">
<rect width="19.9946" height="19.9946" fill="white"/>
</clipPath>
</defs>
</svg>
