<svg width="24" height="24" viewBox="0 0 24 24" fill="none" xmlns="http://www.w3.org/2000/svg">
<g clip-path="url(#clip0_523_3001)">
<path d="M4.9001 19.1C1.0001 15.2 1.0001 8.80002 4.9001 4.90002" stroke="#6C757D" stroke-width="1.99995" stroke-linecap="round" stroke-linejoin="round"/>
<path d="M7.79995 16.2C5.49995 13.9 5.49995 10.1 7.79995 7.70001" stroke="#6C757D" stroke-width="1.99995" stroke-linecap="round" stroke-linejoin="round"/>
<path d="M11.9998 13.9998C13.1043 13.9998 13.9998 13.1043 13.9998 11.9998C13.9998 10.8952 13.1043 9.99976 11.9998 9.99976C10.8952 9.99976 9.99976 10.8952 9.99976 11.9998C9.99976 13.1043 10.8952 13.9998 11.9998 13.9998Z" stroke="#6C757D" stroke-width="1.99995" stroke-linecap="round" stroke-linejoin="round"/>
<path d="M16.1995 7.7998C18.4995 10.0998 18.4995 13.8998 16.1995 16.2998" stroke="#6C757D" stroke-width="1.99995" stroke-linecap="round" stroke-linejoin="round"/>
<path d="M19.0996 4.8999C22.9996 8.7999 22.9996 15.0999 19.0996 18.9999" stroke="#6C757D" stroke-width="1.99995" stroke-linecap="round" stroke-linejoin="round"/>
</g>
<defs>
<clipPath id="clip0_523_3001">
<rect width="24" height="24" fill="white"/>
</clipPath>
</defs>
</svg>
