<svg width="28" height="28" viewBox="0 0 28 28" fill="none" xmlns="http://www.w3.org/2000/svg">
<path d="M9.9078 16.9015C10.6807 16.9015 11.4219 16.5945 11.9683 16.048C12.5148 15.5015 12.8219 14.7603 12.8219 13.9874C12.8219 12.3789 12.239 11.6562 11.6562 10.4906C10.4067 7.99263 11.3951 5.76513 13.9875 3.49683C14.5703 6.41088 16.3187 9.20837 18.65 11.0734C20.9812 12.9384 22.1468 15.153 22.1468 17.4843C22.1468 18.5558 21.9358 19.6168 21.5257 20.6067C21.1157 21.5967 20.5147 22.4962 19.757 23.2538C18.9993 24.0115 18.0999 24.6125 17.1099 25.0225C16.12 25.4326 15.059 25.6436 13.9875 25.6436C12.916 25.6436 11.855 25.4326 10.865 25.0225C9.87509 24.6125 8.97561 24.0115 8.21794 23.2538C7.46028 22.4962 6.85926 21.5967 6.44922 20.6067C6.03917 19.6168 5.82812 18.5558 5.82813 17.4843C5.82813 16.1403 6.33284 14.8104 6.99375 13.9874C6.99375 14.7603 7.30076 15.5015 7.84725 16.048C8.39375 16.5945 9.13495 16.9015 9.9078 16.9015Z" stroke="#2962FF" stroke-width="2.91405" stroke-linecap="round" stroke-linejoin="round"/>
</svg>
