<svg width="28" height="28" viewBox="0 0 28 28" fill="none" xmlns="http://www.w3.org/2000/svg">
<path d="M12.8219 5.48073C12.8217 5.31838 12.7733 5.15973 12.683 5.02481C12.5927 4.88989 12.4645 4.78474 12.3144 4.72264C12.1644 4.66054 11.9994 4.64427 11.8401 4.67588C11.6809 4.70749 11.5346 4.78557 11.4197 4.90025L7.47519 8.84355C7.32296 8.99669 7.14186 9.11809 6.94237 9.20073C6.74289 9.28336 6.52899 9.32559 6.31306 9.32495H3.49692C3.18778 9.32495 2.8913 9.44776 2.6727 9.66636C2.45411 9.88495 2.3313 10.1814 2.3313 10.4906V17.4843C2.3313 17.7934 2.45411 18.0899 2.6727 18.3085C2.8913 18.5271 3.18778 18.6499 3.49692 18.6499H6.31306C6.52899 18.6493 6.74289 18.6915 6.94237 18.7742C7.14186 18.8568 7.32296 18.9782 7.47519 19.1313L11.4185 23.0758C11.5334 23.191 11.6799 23.2694 11.8395 23.3012C11.9991 23.333 12.1645 23.3167 12.3148 23.2544C12.4651 23.1921 12.5935 23.0866 12.6838 22.9513C12.774 22.8159 12.8221 22.6568 12.8219 22.4941V5.48073Z" stroke="#2962FF" stroke-width="2.91405" stroke-linecap="round" stroke-linejoin="round"/>
<path d="M18.6499 10.4907C19.4065 11.4995 19.8155 12.7266 19.8155 13.9876C19.8155 15.2486 19.4065 16.4756 18.6499 17.4845" stroke="#2962FF" stroke-width="2.91405" stroke-linecap="round" stroke-linejoin="round"/>
<path d="M22.571 21.4054C23.5452 20.4312 24.3179 19.2747 24.8452 18.002C25.3724 16.7292 25.6437 15.365 25.6437 13.9874C25.6437 12.6097 25.3724 11.2455 24.8452 9.97275C24.3179 8.69996 23.5452 7.54348 22.571 6.56934" stroke="#2962FF" stroke-width="2.91405" stroke-linecap="round" stroke-linejoin="round"/>
</svg>
