<svg width="17" height="37" viewBox="0 0 17 37" fill="none" xmlns="http://www.w3.org/2000/svg">
<path d="M11.6668 5.00001V22.5667C12.9377 23.3005 13.931 24.4331 14.4926 25.789C15.0542 27.1448 15.1528 28.6481 14.7729 30.0656C14.3931 31.4832 13.5561 32.7358 12.3918 33.6292C11.2275 34.5226 9.80098 35.0068 8.33342 35.0068C6.86586 35.0068 5.4393 34.5226 4.27501 33.6292C3.11071 32.7358 2.27374 31.4832 1.89391 30.0656C1.51408 28.6481 1.61261 27.1448 2.17422 25.789C2.73583 24.4331 3.72914 23.3005 5.00008 22.5667V5.00001C5.00008 4.11595 5.35127 3.2681 5.9764 2.64298C6.60152 2.01786 7.44936 1.66667 8.33342 1.66667C9.21747 1.66667 10.0653 2.01786 10.6904 2.64298C11.3156 3.2681 11.6668 4.11595 11.6668 5.00001Z" stroke="#51A2FF" stroke-width="3.33333" stroke-linecap="round" stroke-linejoin="round"/>
</svg>
