<svg width="37" height="37" viewBox="0 0 37 37" fill="none" xmlns="http://www.w3.org/2000/svg">
<path d="M35.0001 18.3333H30.8667C30.1384 18.3318 29.4295 18.5688 28.8486 19.0083C28.2677 19.4477 27.8467 20.0653 27.6501 20.7667L23.7334 34.7C23.7082 34.7865 23.6555 34.8626 23.5834 34.9167C23.5113 34.9707 23.4236 35 23.3334 35C23.2433 35 23.1555 34.9707 23.0834 34.9167C23.0113 34.8626 22.9587 34.7865 22.9334 34.7L13.7334 1.96666C13.7082 1.88011 13.6555 1.80408 13.5834 1.74999C13.5113 1.6959 13.4236 1.66666 13.3334 1.66666C13.2433 1.66666 13.1555 1.6959 13.0834 1.74999C13.0113 1.80408 12.9587 1.88011 12.9334 1.96666L9.01675 15.9C8.82086 16.5986 8.40238 17.2142 7.82485 17.6533C7.24733 18.0925 6.54228 18.3312 5.81675 18.3333H1.66675" stroke="#51A2FF" stroke-width="3.33333" stroke-linecap="round" stroke-linejoin="round"/>
</svg>
