<svg width="40" height="40" viewBox="0 0 40 40" fill="none" xmlns="http://www.w3.org/2000/svg">
<path d="M36.2165 30L22.8832 6.66663C22.5925 6.15364 22.1709 5.72695 21.6614 5.43008C21.152 5.13322 20.5729 4.97681 19.9832 4.97681C19.3936 4.97681 18.8145 5.13322 18.305 5.43008C17.7955 5.72695 17.3739 6.15364 17.0832 6.66663L3.74988 30C3.45602 30.5089 3.30193 31.0865 3.30323 31.6741C3.30453 32.2618 3.46118 32.8387 3.75729 33.3463C4.05341 33.854 4.47846 34.2743 4.98937 34.5647C5.50029 34.8551 6.07889 35.0053 6.66655 35H33.3332C33.918 34.9994 34.4924 34.8449 34.9987 34.5521C35.5049 34.2593 35.9252 33.8385 36.2174 33.3318C36.5096 32.8252 36.6633 32.2506 36.6631 31.6658C36.663 31.0809 36.509 30.5064 36.2165 30Z" stroke="#FF8904" stroke-width="3.33333" stroke-linecap="round" stroke-linejoin="round"/>
<path d="M20 15V21.6667" stroke="#FF8904" stroke-width="3.33333" stroke-linecap="round" stroke-linejoin="round"/>
<path d="M20 28.3333H20.0167" stroke="#FF8904" stroke-width="3.33333" stroke-linecap="round" stroke-linejoin="round"/>
</svg>
