<svg width="24" height="24" viewBox="0 0 24 24" fill="none" xmlns="http://www.w3.org/2000/svg">
<path d="M0 12C0 5.37258 5.37258 0 12 0C18.6274 0 24 5.37258 24 12C24 18.6274 18.6274 24 12 24C5.37258 24 0 18.6274 0 12Z" fill="white"/>
<path d="M18.4866 16L13.1533 6.66665C13.037 6.46146 12.8684 6.29078 12.6646 6.17203C12.4608 6.05329 12.2291 5.99072 11.9933 5.99072C11.7574 5.99072 11.5258 6.05329 11.322 6.17203C11.1182 6.29078 10.9496 6.46146 10.8333 6.66665L5.49995 16C5.38241 16.2036 5.32077 16.4346 5.32129 16.6697C5.32181 16.9047 5.38447 17.1355 5.50292 17.3385C5.62136 17.5416 5.79138 17.7097 5.99575 17.8259C6.20011 17.942 6.43156 18.0021 6.66662 18H17.3333C17.5672 17.9997 17.797 17.938 17.9995 17.8208C18.202 17.7037 18.3701 17.5354 18.487 17.3327C18.6038 17.1301 18.6653 16.9002 18.6653 16.6663C18.6652 16.4324 18.6036 16.2026 18.4866 16Z" stroke="#FB2C36" stroke-width="1.33333" stroke-linecap="round" stroke-linejoin="round"/>
<path d="M12 10V12.6667" stroke="#FB2C36" stroke-width="1.33333" stroke-linecap="round" stroke-linejoin="round"/>
<path d="M12 15.3333H12.0067" stroke="#FB2C36" stroke-width="1.33333" stroke-linecap="round" stroke-linejoin="round"/>
</svg>
