<svg width="48" height="48" viewBox="0 0 48 48" fill="none" xmlns="http://www.w3.org/2000/svg">
<path d="M0 14C0 6.26801 6.26801 0 14 0H34C41.732 0 48 6.26801 48 14V34C48 41.732 41.732 48 34 48H14C6.26801 48 0 41.732 0 34V14Z" fill="#E7000B"/>
<path d="M33.7299 30L25.7299 16C25.5555 15.6922 25.3025 15.4362 24.9969 15.258C24.6912 15.0799 24.3437 14.9861 23.9899 14.9861C23.6361 14.9861 23.2887 15.0799 22.983 15.258C22.6773 15.4362 22.4244 15.6922 22.2499 16L14.2499 30C14.0736 30.3053 13.9812 30.6519 13.9819 31.0045C13.9827 31.3571 14.0767 31.7032 14.2544 32.0078C14.432 32.3124 14.6871 32.5646 14.9936 32.7388C15.3002 32.9131 15.6473 33.0032 15.9999 33H31.9999C32.3508 32.9996 32.6955 32.9069 32.9992 32.7313C33.303 32.5556 33.5551 32.3031 33.7304 31.9991C33.9057 31.6951 33.998 31.3504 33.9979 30.9995C33.9978 30.6486 33.9054 30.3039 33.7299 30Z" stroke="white" stroke-width="2" stroke-linecap="round" stroke-linejoin="round"/>
<path d="M24 21V25" stroke="white" stroke-width="2" stroke-linecap="round" stroke-linejoin="round"/>
<path d="M24 29H24.01" stroke="white" stroke-width="2" stroke-linecap="round" stroke-linejoin="round"/>
</svg>
